<svg xmlns="http://www.w3.org/2000/svg" shape-rendering="geometricPrecision" text-rendering="geometricPrecision" image-rendering="optimizeQuality" fill-rule="evenodd" clip-rule="evenodd" viewBox="0 0 512 512"><g fill-rule="nonzero"><path d="M255.927 0h.072C397.361 0 512 114.639 512 255.999 512 397.361 397.361 512 255.999 512 114.639 512 0 397.361 0 255.999c0-67.882 27.004-133.047 74.977-181.022C122.782 26.987 187.807 0 255.57 0h.371-.014z"/><path fill="#fff" d="M212.538 171.713V340.25h-45.765V213.846h-.965l-36.882 22.053v-38.813l41.478-25.373h42.134zm100.4 170.854c-13.248 0-25.027-2.317-35.339-6.875-10.272-4.595-18.343-10.929-24.214-18.961-5.87-8.072-8.843-17.34-8.882-27.846h46.073c.038 3.244 1.043 6.142 3.013 8.69 1.931 2.55 4.595 4.558 7.994 5.986 3.399 1.429 7.298 2.125 11.702 2.125 4.209 0 7.956-.734 11.199-2.241 3.206-1.545 5.756-3.63 7.57-6.295 1.815-2.703 2.665-5.794 2.626-9.23.039-3.399-.966-6.412-3.089-9.037-2.124-2.665-5.06-4.711-8.844-6.179-3.785-1.507-8.149-2.239-13.093-2.239h-17.109v-31.592h17.109c4.558 0 8.574-.734 12.05-2.24 3.476-1.468 6.218-3.515 8.149-6.141 1.97-2.664 2.897-5.677 2.858-9.076.039-3.282-.734-6.178-2.394-8.728-1.662-2.51-3.94-4.479-6.876-5.909-2.934-1.428-6.333-2.124-10.156-2.124-4.171 0-7.878.734-11.162 2.202-3.244 1.505-5.831 3.553-7.685 6.179-1.854 2.627-2.819 5.639-2.896 9.037h-43.756c.038-10.311 2.895-19.426 8.495-27.304 5.64-7.917 13.363-14.097 23.173-18.615 9.809-4.479 21.086-6.72 33.831-6.72 12.435 0 23.442 2.085 33.019 6.334 9.578 4.21 17.07 10.002 22.477 17.379 5.408 7.377 8.072 15.834 8.033 25.334.117 9.424-3.128 17.147-9.693 23.173-6.527 6.063-14.831 9.616-24.871 10.698v1.35c13.593 1.468 23.828 5.6 30.703 12.437 6.835 6.835 10.233 15.41 10.118 25.721.038 9.886-2.896 18.614-8.844 26.26-5.986 7.608-14.212 13.594-24.794 17.92-10.544 4.364-22.708 6.527-36.495 6.527z"/></g></svg>